<mxfile host="app.diagrams.net" modified="2024-06-08T10:14:41.006Z" agent="Mozilla/5.0 (Windows NT 10.0; Win64; x64) AppleWebKit/537.36 (KHTML, like Gecko) Chrome/125.0.0.0 Safari/537.36" etag="8K36HqyQiDWWICqZtOFx" version="24.5.2" type="github">
  <diagram name="Pagina-1" id="wzz7LOdit4cBp0PMNg8w">
    <mxGraphModel dx="794" dy="452" grid="1" gridSize="10" guides="1" tooltips="1" connect="1" arrows="1" fold="1" page="1" pageScale="1" pageWidth="827" pageHeight="1169" math="0" shadow="0">
      <root>
        <mxCell id="0" />
        <mxCell id="1" parent="0" />
        <mxCell id="TTVga_50srubHp7oe7sS-1" value="" style="rounded=0;whiteSpace=wrap;html=1;rotation=90;" vertex="1" parent="1">
          <mxGeometry y="80" width="320" height="240" as="geometry" />
        </mxCell>
        <mxCell id="TTVga_50srubHp7oe7sS-2" value="" style="endArrow=none;html=1;rounded=0;exitX=0.446;exitY=0.992;exitDx=0;exitDy=0;exitPerimeter=0;entryX=0.444;entryY=-0.008;entryDx=0;entryDy=0;entryPerimeter=0;" edge="1" parent="1">
          <mxGeometry width="50" height="50" relative="1" as="geometry">
            <mxPoint x="40.00000000000007" y="200.14000000000004" as="sourcePoint" />
            <mxPoint x="280.00000000000006" y="199.50000000000006" as="targetPoint" />
          </mxGeometry>
        </mxCell>
        <mxCell id="TTVga_50srubHp7oe7sS-3" style="edgeStyle=orthogonalEdgeStyle;rounded=0;orthogonalLoop=1;jettySize=auto;html=1;exitX=1;exitY=0.5;exitDx=0;exitDy=0;" edge="1" parent="1" source="TTVga_50srubHp7oe7sS-1" target="TTVga_50srubHp7oe7sS-1">
          <mxGeometry relative="1" as="geometry" />
        </mxCell>
        <mxCell id="TTVga_50srubHp7oe7sS-4" value="" style="ellipse;whiteSpace=wrap;html=1;" vertex="1" parent="1">
          <mxGeometry x="130" y="180" width="45" height="40" as="geometry" />
        </mxCell>
        <mxCell id="TTVga_50srubHp7oe7sS-5" value="" style="rounded=0;whiteSpace=wrap;html=1;" vertex="1" parent="1">
          <mxGeometry x="320" y="40" width="280" height="160" as="geometry" />
        </mxCell>
        <mxCell id="TTVga_50srubHp7oe7sS-6" value="" style="endArrow=none;html=1;rounded=0;entryX=0.5;entryY=0;entryDx=0;entryDy=0;exitX=0.5;exitY=1;exitDx=0;exitDy=0;" edge="1" parent="1" source="TTVga_50srubHp7oe7sS-7" target="TTVga_50srubHp7oe7sS-5">
          <mxGeometry width="50" height="50" relative="1" as="geometry">
            <mxPoint x="380" y="260" as="sourcePoint" />
            <mxPoint x="430" y="210" as="targetPoint" />
          </mxGeometry>
        </mxCell>
        <mxCell id="TTVga_50srubHp7oe7sS-8" value="" style="endArrow=none;html=1;rounded=0;entryX=0.5;entryY=0;entryDx=0;entryDy=0;exitX=0.5;exitY=1;exitDx=0;exitDy=0;" edge="1" parent="1" source="TTVga_50srubHp7oe7sS-5" target="TTVga_50srubHp7oe7sS-7">
          <mxGeometry width="50" height="50" relative="1" as="geometry">
            <mxPoint x="447" y="200" as="sourcePoint" />
            <mxPoint x="447" y="40" as="targetPoint" />
          </mxGeometry>
        </mxCell>
        <mxCell id="TTVga_50srubHp7oe7sS-7" value="" style="ellipse;whiteSpace=wrap;html=1;" vertex="1" parent="1">
          <mxGeometry x="435" y="100" width="50" height="40" as="geometry" />
        </mxCell>
        <mxCell id="TTVga_50srubHp7oe7sS-9" value="" style="rounded=0;whiteSpace=wrap;html=1;rotation=90;" vertex="1" parent="1">
          <mxGeometry x="600" y="80" width="240" height="160" as="geometry" />
        </mxCell>
        <mxCell id="TTVga_50srubHp7oe7sS-10" value="" style="endArrow=none;html=1;rounded=0;entryX=0.5;entryY=0;entryDx=0;entryDy=0;exitX=0.5;exitY=1;exitDx=0;exitDy=0;" edge="1" parent="1" source="TTVga_50srubHp7oe7sS-9" target="TTVga_50srubHp7oe7sS-9">
          <mxGeometry width="50" height="50" relative="1" as="geometry">
            <mxPoint x="410" y="260" as="sourcePoint" />
            <mxPoint x="460" y="210" as="targetPoint" />
          </mxGeometry>
        </mxCell>
        <mxCell id="TTVga_50srubHp7oe7sS-11" value="" style="ellipse;whiteSpace=wrap;html=1;" vertex="1" parent="1">
          <mxGeometry x="700" y="140" width="40" height="40" as="geometry" />
        </mxCell>
      </root>
    </mxGraphModel>
  </diagram>
</mxfile>
